G75*
%MOIN*%
%OFA0B0*%
%FSLAX24Y24*%
%IPPOS*%
%LPD*%
%AMOC8*
5,1,8,0,0,1.08239X$1,22.5*
%
%ADD10C,0.0080*%
%ADD11R,0.0128X0.0167*%
%ADD12R,0.0138X0.0138*%
D10*
X000300Y000750D02*
X000550Y000500D01*
X001050Y000500D01*
X001300Y000750D01*
X001300Y001250D01*
X001050Y001500D01*
X001300Y001750D01*
X001300Y002250D01*
X001050Y002500D01*
X000550Y002500D01*
X000300Y002250D01*
X000300Y001750D01*
X000550Y001500D01*
X001050Y001500D01*
X001490Y001457D02*
X001543Y001403D01*
X001757Y001403D01*
X001810Y001457D01*
X001810Y001564D01*
X001757Y001617D01*
X001543Y001617D02*
X001490Y001564D01*
X001490Y001457D01*
X001490Y001249D02*
X001703Y001249D01*
X001810Y001142D01*
X001703Y001035D01*
X001490Y001035D01*
X000550Y001500D02*
X000300Y001250D01*
X000300Y000750D01*
X001490Y001825D02*
X001543Y001772D01*
X001757Y001772D01*
X001810Y001825D01*
X001810Y001932D01*
X001757Y001985D01*
X001543Y001985D02*
X001490Y001932D01*
X001490Y001825D01*
X002790Y001777D02*
X002790Y001937D01*
X002843Y001990D01*
X003057Y001990D01*
X003110Y001937D01*
X003110Y001777D01*
X002790Y001777D01*
X002790Y001622D02*
X003110Y001622D01*
X002790Y001408D01*
X003110Y001408D01*
X003057Y001254D02*
X002950Y001254D01*
X002950Y001147D01*
X003057Y001254D02*
X003110Y001200D01*
X003110Y001093D01*
X003057Y001040D01*
X002843Y001040D01*
X002790Y001093D01*
X002790Y001200D01*
X002843Y001254D01*
X003300Y001250D02*
X003550Y001500D01*
X003300Y001750D01*
X003300Y002250D01*
X003550Y002500D01*
X004050Y002500D01*
X004300Y002250D01*
X004300Y001750D01*
X004050Y001500D01*
X004300Y001250D01*
X004300Y000750D01*
X004050Y000500D01*
X003550Y000500D01*
X003300Y000750D01*
X003300Y001250D01*
X003550Y001500D02*
X004050Y001500D01*
D11*
X002571Y001721D03*
X002029Y001721D03*
D12*
X002300Y001569D03*
M02*
