G75*
%MOIN*%
%OFA0B0*%
%FSLAX24Y24*%
%IPPOS*%
%LPD*%
%AMOC8*
5,1,8,0,0,1.08239X$1,22.5*
%
%ADD10C,0.0080*%
D10*
X001527Y001340D02*
X001633Y001340D01*
X001687Y001393D01*
X001687Y001500D01*
X001633Y001554D01*
X001527Y001554D01*
X001473Y001500D01*
X001473Y001447D01*
X001687Y001447D01*
X001842Y001447D02*
X002055Y001447D01*
X002055Y001500D02*
X002055Y001393D01*
X002002Y001340D01*
X001895Y001340D01*
X001842Y001447D02*
X001842Y001500D01*
X001895Y001554D01*
X002002Y001554D01*
X002055Y001500D01*
X002210Y001607D02*
X002423Y001393D01*
X002423Y001340D01*
X002210Y001340D01*
X002263Y001160D02*
X002423Y001160D01*
X002423Y000840D01*
X002263Y000840D01*
X002210Y000893D01*
X002210Y001107D01*
X002263Y001160D01*
X002578Y001160D02*
X002792Y001160D01*
X002792Y000840D01*
X002578Y000840D01*
X002685Y001000D02*
X002792Y001000D01*
X002946Y000840D02*
X003160Y000840D01*
X003160Y001160D01*
X003107Y001340D02*
X003000Y001340D01*
X003107Y001340D02*
X003160Y001393D01*
X003160Y001500D01*
X003107Y001554D01*
X003000Y001554D01*
X002946Y001500D01*
X002946Y001447D01*
X003160Y001447D01*
X002792Y001447D02*
X002578Y001447D01*
X002578Y001500D01*
X002632Y001554D01*
X002738Y001554D01*
X002792Y001500D01*
X002792Y001393D01*
X002738Y001340D01*
X002632Y001340D01*
X002210Y001607D02*
X002210Y001660D01*
X002423Y001660D01*
X002901Y002360D02*
X002861Y002400D01*
X002861Y002600D01*
X002982Y002600D01*
X003022Y002560D01*
X003022Y002480D01*
X002982Y002440D01*
X002861Y002440D01*
X002901Y002360D02*
X002942Y002360D01*
X002727Y002480D02*
X002727Y002560D01*
X002687Y002600D01*
X002567Y002600D01*
X002567Y002680D02*
X002567Y002440D01*
X002687Y002440D01*
X002727Y002480D01*
X002432Y002440D02*
X002272Y002680D01*
X002138Y002680D02*
X002138Y002440D01*
X001977Y002440D01*
X001843Y002440D02*
X001683Y002440D01*
X001548Y002440D02*
X001468Y002440D01*
X001508Y002440D02*
X001508Y002680D01*
X001548Y002680D01*
X001683Y002680D02*
X001683Y002640D01*
X001843Y002480D01*
X001843Y002440D01*
X002058Y002560D02*
X002138Y002560D01*
X002138Y002680D02*
X001977Y002680D01*
X001843Y002680D02*
X001683Y002680D01*
X001352Y002560D02*
X001352Y002480D01*
X001312Y002440D01*
X001232Y002440D01*
X001192Y002520D02*
X001352Y002520D01*
X001352Y002560D02*
X001312Y002600D01*
X001232Y002600D01*
X001192Y002560D01*
X001192Y002520D01*
X001057Y002480D02*
X001017Y002440D01*
X000897Y002440D01*
X000897Y002680D01*
X000897Y002600D02*
X001017Y002600D01*
X001057Y002560D01*
X001057Y002480D01*
X003129Y002480D02*
X003129Y002440D01*
X003169Y002440D01*
X003169Y002480D01*
X003129Y002480D01*
X003303Y002480D02*
X003343Y002520D01*
X003424Y002520D01*
X003464Y002560D01*
X003424Y002600D01*
X003303Y002600D01*
X003303Y002480D02*
X003343Y002440D01*
X003464Y002440D01*
X003580Y002440D02*
X003660Y002440D01*
X003620Y002440D02*
X003620Y002600D01*
X003660Y002600D01*
X003620Y002680D02*
X003620Y002720D01*
X003160Y000660D02*
X003000Y000660D01*
X002946Y000607D01*
X002946Y000500D01*
X003000Y000447D01*
X003160Y000447D01*
X003053Y000447D02*
X002946Y000340D01*
X002792Y000393D02*
X002578Y000607D01*
X002578Y000393D01*
X002632Y000340D01*
X002738Y000340D01*
X002792Y000393D01*
X002792Y000607D01*
X002738Y000660D01*
X002632Y000660D01*
X002578Y000607D01*
X002423Y000393D02*
X002370Y000393D01*
X002370Y000340D01*
X002423Y000340D01*
X002423Y000393D01*
X002239Y000340D02*
X002026Y000554D01*
X002026Y000607D01*
X002079Y000660D01*
X002186Y000660D01*
X002239Y000607D01*
X002239Y000340D02*
X002026Y000340D01*
X003160Y000340D02*
X003160Y000660D01*
M02*
